<?xml version="1.0" standalone="no"?>
<!DOCTYPE svg PUBLIC "-//W3C//DTD SVG 20010904//EN"
 "http://www.w3.org/TR/2001/REC-SVG-20010904/DTD/svg10.dtd">
<svg version="1.0" xmlns="http://www.w3.org/2000/svg"
 width="2498.000000pt" height="1399.000000pt" viewBox="0 0 2498.000000 1399.000000"
 preserveAspectRatio="xMidYMid meet">

<g transform="translate(0.000000,1399.000000) scale(0.100000,-0.100000)"
fill="#000000" stroke="none">
<path d="M13865 13973 c-136 -7 -411 -35 -575 -59 -1963 -281 -3694 -1435
-4717 -3144 -122 -203 -270 -486 -283 -541 -30 -124 70 -236 201 -227 92 7
112 28 221 240 667 1290 1751 2305 3074 2877 1390 601 2961 672 4410 200 117
-38 227 -69 245 -69 83 1 157 64 180 153 10 40 9 54 -5 91 -20 53 -36 61 -311
152 -550 182 -1089 286 -1670 324 -144 9 -619 11 -770 3z"/>
<path d="M17414 13956 c-151 -40 -266 -108 -376 -224 -117 -125 -187 -272
-210 -447 -31 -230 82 -526 357 -935 108 -161 416 -571 426 -568 4 2 83 102
175 223 446 589 607 905 606 1195 -1 510 -484 883 -978 756z m399 -310 c189
-91 300 -298 268 -500 -30 -189 -181 -354 -362 -395 -173 -40 -372 27 -478
161 -214 268 -104 644 223 760 41 15 73 18 161 15 103 -3 115 -5 188 -41z"/>
<path d="M18374 12446 c-11 -8 -49 -53 -83 -101 -84 -115 -83 -125 29 -223
598 -525 1084 -1132 1431 -1788 67 -126 105 -166 176 -183 73 -19 159 13 189
70 28 54 18 94 -55 233 -372 708 -891 1367 -1492 1894 -122 107 -158 125 -195
98z"/>
<path d="M17250 9611 c-70 -23 -141 -83 -173 -147 -37 -73 -38 -124 -35 -1829
l3 -1670 26 -56 c66 -139 215 -208 360 -165 105 30 178 105 208 215 l16 59 63
-48 c143 -107 283 -176 452 -222 76 -20 107 -23 280 -22 177 0 204 3 290 26
528 143 886 591 961 1202 17 140 6 422 -21 551 -105 494 -409 868 -827 1019
-405 145 -823 68 -1150 -212 l-53 -44 0 550 c0 625 1 615 -78 703 -65 72 -109
92 -212 96 -47 1 -96 -1 -110 -6z m1312 -1610 c211 -54 387 -209 483 -428 113
-253 107 -604 -14 -855 -132 -275 -367 -428 -656 -428 -283 0 -520 152 -649
415 -79 160 -100 273 -93 494 5 170 15 228 59 341 67 173 209 334 358 408 47
23 112 48 145 56 91 22 276 20 367 -3z"/>
<path d="M20294 9406 c-80 -18 -113 -36 -156 -84 -50 -55 -62 -100 -63 -222 0
-139 16 -192 75 -251 63 -63 136 -83 286 -77 86 3 120 9 162 27 61 27 114 83
130 139 30 99 23 272 -13 342 -23 45 -77 89 -134 111 -72 27 -205 34 -287 15z"/>
<path d="M7883 9151 c-64 -22 -110 -56 -147 -110 -47 -67 -56 -124 -56 -337
l0 -191 -147 -5 c-165 -5 -218 -21 -281 -81 -61 -58 -77 -101 -77 -202 0 -103
12 -134 78 -203 65 -66 119 -82 287 -82 l140 0 0 -772 c0 -837 3 -896 54
-1032 31 -81 70 -140 142 -210 109 -107 223 -144 459 -153 121 -4 162 -2 214
12 191 50 311 168 311 306 0 100 -42 182 -115 224 -62 36 -101 39 -201 15
-101 -24 -158 -21 -200 12 -55 44 -54 24 -54 843 l0 755 198 0 c232 0 275 9
345 70 66 58 91 117 91 210 0 93 -25 151 -94 213 -70 63 -96 69 -332 74 l-208
5 0 192 c0 213 -10 268 -60 341 -74 107 -218 151 -347 106z"/>
<path d="M5340 8594 c-312 -36 -527 -124 -738 -306 -487 -418 -625 -1236 -312
-1858 154 -307 419 -540 730 -644 142 -47 258 -66 410 -66 295 0 538 93 780
299 l52 45 -7 -105 c-17 -243 -93 -394 -252 -502 -129 -88 -282 -128 -488
-129 -166 -1 -260 19 -540 113 -194 66 -215 71 -275 67 -110 -8 -177 -55 -224
-158 -45 -96 -28 -210 41 -282 48 -50 208 -147 293 -179 510 -186 1050 -167
1457 51 257 138 453 383 537 672 56 194 56 191 56 1500 0 1381 7 1273 -89
1369 -44 44 -70 61 -111 73 -118 35 -240 8 -316 -71 -45 -46 -84 -131 -84
-183 0 -37 -9 -38 -41 -4 -30 33 -185 137 -258 174 -81 41 -218 87 -308 104
-83 15 -255 26 -313 20z m354 -594 c128 -32 228 -91 332 -195 81 -80 97 -103
148 -205 74 -150 98 -256 98 -435 1 -306 -98 -544 -296 -713 -70 -60 -214
-128 -308 -147 -101 -20 -260 -19 -351 1 -390 88 -642 486 -598 945 17 175 68
322 159 456 92 135 257 252 414 293 103 27 297 27 402 0z"/>
<path d="M15085 8590 c-397 -36 -761 -241 -988 -557 -315 -440 -364 -1070
-119 -1558 205 -410 579 -678 1041 -745 106 -16 399 -7 495 15 412 93 743 344
929 704 66 127 109 246 139 384 19 88 22 132 22 317 0 184 -3 229 -22 316 -62
284 -177 510 -358 703 -232 246 -527 387 -879 421 -119 11 -139 11 -260 0z
m329 -590 c214 -54 393 -204 496 -415 138 -284 125 -662 -31 -921 -146 -239
-383 -374 -658 -374 -138 0 -225 20 -336 74 -163 80 -278 195 -360 361 -62
125 -85 222 -92 380 -19 469 231 823 642 909 11 2 74 4 141 5 90 1 140 -4 198
-19z"/>
<path d="M10547 8565 c-176 -33 -350 -121 -502 -252 -64 -56 -85 -69 -85 -54
0 78 -82 201 -162 242 -161 82 -360 7 -425 -160 -17 -43 -18 -114 -21 -1151
-3 -1126 -1 -1193 35 -1264 27 -54 94 -115 151 -136 64 -24 160 -26 225 -4 60
20 131 84 165 148 l27 51 5 780 c6 838 4 804 60 916 60 117 169 222 286 275
115 51 285 67 417 39 130 -27 209 -89 267 -210 66 -135 64 -100 70 -985 l5
-805 23 -50 c28 -60 82 -119 137 -148 56 -29 176 -35 243 -13 68 23 143 91
173 158 l24 53 5 770 c5 767 5 770 28 837 88 261 344 422 642 405 239 -14 370
-126 427 -364 14 -59 17 -174 22 -863 7 -891 1 -827 82 -915 60 -65 108 -87
200 -93 106 -6 168 15 234 82 90 89 85 36 85 946 0 791 -3 877 -36 1038 -72
349 -265 593 -545 686 -221 74 -467 74 -684 2 -187 -63 -399 -211 -539 -376
-23 -27 -40 -40 -43 -33 -15 43 -116 178 -172 233 -102 99 -212 157 -379 201
-104 28 -335 35 -445 14z"/>
<path d="M20330 8551 c-93 -29 -166 -97 -200 -188 -20 -53 -20 -77 -20 -1197
0 -1291 -5 -1205 78 -1297 69 -77 109 -94 222 -94 87 0 100 3 148 30 64 35 96
71 131 145 l26 55 0 1160 0 1160 -24 53 c-32 71 -115 147 -183 167 -54 16
-136 18 -178 6z"/>
<path d="M8296 5088 c-85 -23 -156 -130 -143 -215 14 -84 247 -558 405 -823
582 -977 1383 -1775 2357 -2345 262 -153 294 -164 375 -122 88 44 127 177 76
261 -19 32 -52 56 -182 130 -1183 680 -2100 1695 -2638 2924 -63 142 -88 173
-154 192 -43 11 -44 11 -96 -2z"/>
<path d="M20087 4985 c-26 -7 -61 -25 -78 -40 -17 -17 -81 -134 -158 -289
-447 -901 -1056 -1640 -1842 -2233 -858 -649 -1860 -1061 -2920 -1203 -487
-65 -1078 -70 -1549 -13 -74 9 -154 16 -176 16 -54 0 -99 -32 -114 -81 -7 -20
-21 -51 -31 -68 -40 -66 -14 -150 54 -183 42 -19 170 -37 457 -63 208 -19 834
-16 1060 5 808 76 1539 273 2245 605 1273 599 2323 1596 2999 2848 94 175 238
479 254 538 31 109 -75 194 -201 161z"/>
<path d="M12488 1880 c-454 -147 -835 -273 -846 -279 -29 -16 -55 -76 -47
-112 7 -32 1006 -1405 1056 -1452 51 -48 135 -30 171 36 7 15 17 192 28 527
l16 505 287 446 c253 392 287 450 287 485 0 22 -7 50 -16 62 -18 25 -65 52
-91 52 -10 -1 -390 -122 -845 -270z"/>
</g>
</svg>
